<?xml version="1.0" standalone="no"?>
<!DOCTYPE svg PUBLIC "-//W3C//DTD SVG 20010904//EN"
 "http://www.w3.org/TR/2001/REC-SVG-20010904/DTD/svg10.dtd">
<svg version="1.0" xmlns="http://www.w3.org/2000/svg"
 width="260.000000pt" height="260.000000pt" viewBox="0 0 260.000000 260.000000"
 preserveAspectRatio="xMidYMid meet">
<metadata>
Created by potrace 1.11, written by Peter Selinger 2001-2013
</metadata>
<g transform="translate(0.000000,260.000000) scale(0.100000,-0.100000)"
fill="#000000" stroke="none">
<path d="M636 2588 c16 -28 655 -967 672 -988 17 -21 21 -15 357 481 187 277
342 507 343 511 2 4 -307 8 -688 8 -550 0 -690 -3 -684 -12z"/>
<path d="M260 1245 l0 -1075 55 0 55 0 2 972 3 972 458 -667 c252 -366 466
-676 475 -687 17 -20 29 -3 487 666 l470 687 3 -971 2 -972 55 0 55 0 0 1075
0 1076 -57 -3 -56 -3 -468 -690 c-257 -379 -471 -691 -476 -692 -4 -1 -220
309 -479 690 l-470 692 -57 3 -57 3 0 -1076z"/>
<path d="M740 422 l0 -422 291 0 290 0 -64 93 c-35 50 -162 236 -282 412 -120
176 -222 324 -227 330 -4 5 -8 -181 -8 -413z"/>
<path d="M1615 428 c-154 -226 -281 -415 -283 -420 -2 -4 125 -8 282 -8 l286
0 0 420 c0 231 -1 420 -2 420 -2 0 -129 -185 -283 -412z"/>
</g>
</svg>
